<?xml version="1.0" standalone="no"?><!DOCTYPE svg PUBLIC "-//W3C//DTD SVG 1.1//EN" "http://www.w3.org/Graphics/SVG/1.1/DTD/svg11.dtd"><svg t="1545810672572" class="icon" style="" viewBox="0 0 1024 1024" version="1.1" xmlns="http://www.w3.org/2000/svg" p-id="20437" xmlns:xlink="http://www.w3.org/1999/xlink" width="200" height="200"><defs><style type="text/css"></style></defs><path d="M1011.536615 818.96471a42.552487 42.552487 0 0 1 0 60.187876l-132.436082 132.379194a42.552487 42.552487 0 0 1-60.187876 0L512 704.562235l-306.912657 306.969545a42.552487 42.552487 0 0 1-60.187876 0L12.463385 879.152586a42.552487 42.552487 0 0 1 0-60.187876L319.43293 511.995164 12.463385 205.082508a42.552487 42.552487 0 0 1 0-60.187876L144.899467 12.458549a42.552487 42.552487 0 0 1 60.187876 0L512 319.428094 818.969545 12.458549a42.552487 42.552487 0 0 1 60.130988 0l132.436082 132.436083a42.552487 42.552487 0 0 1 0 60.130987L704.56707 511.995164l306.969545 306.969546z" fill="#F44336" p-id="20438"></path></svg>